<?xml version="1.0" encoding="utf-8"?>
<!-- Generator: Adobe Illustrator 24.0.1, SVG Export Plug-In . SVG Version: 6.00 Build 0)  -->
<svg version="1.1" id="圖層_1" xmlns="http://www.w3.org/2000/svg" xmlns:xlink="http://www.w3.org/1999/xlink" x="0px" y="0px"
	 viewBox="0 0 20 20" style="enable-background:new 0 0 20 20;" xml:space="preserve">
<style type="text/css">
	.st0{fill:#FFFFFF;}
</style>
<path class="st0" d="M2.7,3.3C1.8,3.3,1,4,1,4.9c0,0.5,0.2,1,0.7,1.3L9.3,12c0.4,0.3,0.9,0.3,1.4,0l7.6-5.7C18.8,6,19,5.5,19,4.9
	c0-0.9-0.8-1.7-1.7-1.7L2.7,3.3z M1,7.2v7.3c0,1.2,1,2.2,2.3,2.2h13.5c1.2,0,2.3-1,2.3-2.2V7.2l-7.7,5.7c-0.8,0.6-1.9,0.6-2.7,0
	L1,7.2z"/>
</svg>
