<?xml version="1.0" encoding="utf-8"?>
<!-- Generator: Adobe Illustrator 24.0.1, SVG Export Plug-In . SVG Version: 6.00 Build 0)  -->
<svg version="1.1" id="圖層_1" xmlns="http://www.w3.org/2000/svg" xmlns:xlink="http://www.w3.org/1999/xlink" x="0px" y="0px"
	 viewBox="0 0 20 20" style="enable-background:new 0 0 20 20;" xml:space="preserve">
<style type="text/css">
	.st0{fill:#FFFFFF;}
</style>
<path class="st0" d="M19,10c0,0.6-0.5,1-1,1h-1v5c0,0.1,0,0.2,0,0.3v0.5c0,0.7-0.6,1.3-1.3,1.3h-0.5h-0.1H15h-1h-0.8
	c-0.7,0-1.3-0.6-1.3-1.3V16v-2c0-0.6-0.4-1-1-1H9c-0.6,0-1,0.4-1,1v2v0.8C8,17.4,7.4,18,6.7,18H6H5H4.9H4.8H4.2
	C3.6,18,3,17.4,3,16.8v-3.5v-0.1V11H2c-0.6,0-1-0.4-1-1c0-0.3,0.1-0.5,0.3-0.8l8-7C9.5,2,9.8,2,10,2s0.5,0.1,0.7,0.2l8,7
	C18.9,9.5,19,9.7,19,10z"/>
</svg>
