<?xml version="1.0" encoding="utf-8"?>
<!-- Generator: Adobe Illustrator 24.0.1, SVG Export Plug-In . SVG Version: 6.00 Build 0)  -->
<svg version="1.1" id="圖層_1" xmlns="http://www.w3.org/2000/svg" xmlns:xlink="http://www.w3.org/1999/xlink" x="0px" y="0px"
	 viewBox="0 0 20 20" style="enable-background:new 0 0 20 20;" xml:space="preserve">
<style type="text/css">
	.st0{fill:#FFFFFF;}
</style>
<path class="st0" d="M7.3,3.2C7.1,2.7,6.5,2.4,5.9,2.5L3.4,3.2C2.9,3.4,2.5,3.8,2.5,4.4c0,7.2,5.9,13.1,13.1,13.1
	c0.5,0,1-0.4,1.1-0.9l0.7-2.6c0.2-0.6-0.1-1.2-0.7-1.4L14,11.5c-0.5-0.2-1-0.1-1.4,0.3l-1.2,1.4c-2.1-1-3.7-2.6-4.7-4.7l1.4-1.2
	C8.6,7.1,8.7,6.5,8.5,6L7.3,3.2L7.3,3.2z"/>
</svg>
