<?xml version="1.0" encoding="utf-8"?>
<!-- Generator: Adobe Illustrator 24.0.1, SVG Export Plug-In . SVG Version: 6.00 Build 0)  -->
<svg version="1.1" id="圖層_1" xmlns="http://www.w3.org/2000/svg" xmlns:xlink="http://www.w3.org/1999/xlink" x="0px" y="0px"
	 viewBox="0 0 20 20" style="enable-background:new 0 0 20 20;" xml:space="preserve">
<style type="text/css">
	.st0{fill:#FFFFFF;}
</style>
<path class="st0" d="M10,2.4h3.3c0.3,0,0.5,0.2,0.5,0.5v1.9c0,0.3-0.2,0.5-0.5,0.5H11l2.6,1.9h3c1,0,1.9,0.8,1.9,1.9v6.6
	c0,1-0.8,1.9-1.9,1.9h-5.2v-3.3c0-0.8-0.6-1.4-1.4-1.4s-1.4,0.6-1.4,1.4v3.3H3.4c-1,0-1.9-0.8-1.9-1.9V9.1c0-1,0.8-1.9,1.9-1.9h3
	l2.7-1.9V3.4C9.1,2.9,9.5,2.4,10,2.4z M11.4,9.5c0-0.8-0.6-1.4-1.4-1.4S8.6,8.7,8.6,9.5s0.6,1.4,1.4,1.4S11.4,10.3,11.4,9.5z
	 M3.9,9.1c-0.3,0-0.5,0.2-0.5,0.5v1.9c0,0.3,0.2,0.5,0.5,0.5h0.9c0.3,0,0.5-0.2,0.5-0.5v-2C5.3,9.2,5.1,9,4.8,9H3.9V9.1z M14.7,9.5
	v1.9c0,0.3,0.2,0.5,0.5,0.5h0.9c0.3,0,0.5-0.2,0.5-0.5V9.5c0-0.3-0.2-0.5-0.5-0.5h-0.9C14.9,9.1,14.7,9.3,14.7,9.5z M3.9,12.8
	c-0.3,0-0.5,0.2-0.5,0.5v1.9c0,0.3,0.2,0.5,0.5,0.5h0.9c0.3,0,0.5-0.2,0.5-0.5v-1.9c0-0.3-0.2-0.5-0.5-0.5H3.9z M15.2,12.8
	c-0.3,0-0.5,0.2-0.5,0.5v1.9c0,0.3,0.2,0.5,0.5,0.5h0.9c0.3,0,0.5-0.2,0.5-0.5v-1.9c0-0.3-0.2-0.5-0.5-0.5H15.2z"/>
</svg>
